<?xml version="1.0" standalone="no"?>
<!DOCTYPE svg PUBLIC "-//W3C//DTD SVG 20010904//EN"
 "http://www.w3.org/TR/2001/REC-SVG-20010904/DTD/svg10.dtd">
<svg version="1.0" xmlns="http://www.w3.org/2000/svg"
 width="658.000000pt" height="720.000000pt" viewBox="0 0 658.000000 720.000000"
 preserveAspectRatio="xMidYMid meet">
<metadata>
Created by potrace 1.16, written by Peter Selinger 2001-2019
</metadata>
<g transform="translate(0.000000,720.000000) scale(0.100000,-0.100000)"
fill="#000000" stroke="none">
<path d="M2625 6531 c-102 -29 -166 -67 -220 -131 -19 -22 -18 -22 23 4 117
73 236 92 372 57 70 -18 86 -19 98 -8 11 11 5 21 -32 55 -44 41 -47 42 -113
41 -38 0 -95 -8 -128 -18z"/>
<path d="M3727 6379 c-9 -5 -24 -24 -33 -40 -14 -28 -14 -32 2 -50 22 -25 39
-24 58 2 11 17 25 21 66 21 57 -1 105 -22 185 -81 76 -57 80 -58 59 -21 -35
62 -136 157 -179 169 -50 14 -134 14 -158 0z"/>
<path d="M2543 6326 c-128 -42 -215 -153 -215 -275 0 -31 2 -62 4 -70 2 -9
-107 -54 -374 -154 -207 -78 -375 -143 -373 -145 4 -5 114 28 315 94 58 19
110 34 115 34 6 0 -39 -27 -100 -61 -60 -33 -119 -69 -130 -80 -19 -19 -19
-19 0 -34 36 -28 239 -123 320 -150 318 -104 729 -166 1367 -206 212 -13 258
-7 454 56 147 48 232 55 301 25 60 -25 125 -91 154 -153 34 -77 16 -207 -40
-286 -19 -26 -21 -43 -21 -154 0 -291 -87 -573 -240 -775 -175 -233 -431 -366
-769 -402 -209 -22 -407 13 -596 104 -145 70 -248 148 -372 283 -56 61 -104
109 -107 105 -3 -3 -6 -68 -6 -144 l0 -140 -32 7 c-160 32 -388 120 -501 195
-163 107 -344 338 -484 619 -40 80 -73 143 -73 140 0 -31 122 -294 176 -381
112 -180 325 -386 511 -495 74 -43 40 -37 -61 10 -246 117 -443 310 -566 557
-18 36 -55 133 -82 215 -27 83 -58 165 -68 183 -14 23 -16 32 -7 32 16 0 59
-45 81 -85 20 -36 16 -19 -14 52 -25 58 -60 75 -94 45 -25 -22 -79 -140 -101
-220 -16 -54 -23 -65 -56 -84 -93 -52 -142 -199 -108 -321 12 -43 68 -104 100
-109 19 -3 26 -18 50 -118 33 -133 86 -283 140 -390 101 -205 343 -449 493
-496 37 -12 105 -18 247 -21 l196 -5 -19 -77 c-32 -133 -58 -312 -64 -446 -28
-581 243 -1173 715 -1564 234 -193 393 -293 516 -322 28 -7 52 -13 54 -15 4
-4 -113 -167 -145 -201 -12 -13 -31 -26 -41 -27 -10 -2 -18 -8 -18 -14 0 -25
-105 -79 -128 -65 -5 3 -7 1 -4 -4 10 -16 -165 -54 -252 -56 -8 0 9 -22 38
-49 60 -55 134 -82 212 -76 27 1 49 0 49 -4 0 -5 5 -8 11 -8 5 0 8 4 5 9 -13
20 24 18 38 -2 l17 -22 -6 22 c-5 18 -1 25 20 33 35 13 35 13 35 -14 0 -14 5
-28 12 -32 8 -5 9 3 5 28 -4 30 -2 37 14 41 15 4 20 -2 25 -29 3 -19 10 -34
15 -34 12 0 11 13 -1 46 -12 30 -13 29 18 38 19 6 22 4 22 -21 0 -29 15 -61
24 -52 3 3 1 23 -5 44 -10 33 -9 41 7 52 23 17 34 2 34 -49 0 -22 5 -38 11
-38 8 0 10 17 5 55 -5 47 -4 56 13 64 17 10 20 6 26 -39 7 -52 29 -85 47 -74
7 4 5 10 -5 15 -8 5 -18 26 -21 46 -4 21 -9 45 -12 54 -3 10 5 20 21 27 34 16
35 16 35 -12 0 -33 20 -87 30 -81 5 3 2 27 -5 53 -20 63 -19 67 10 80 24 11
25 10 25 -22 0 -40 9 -68 20 -61 4 2 3 25 -3 50 -9 40 -8 47 9 60 29 22 34 18
34 -24 0 -43 8 -71 20 -71 4 0 3 25 -3 55 -7 41 -6 59 3 70 19 23 30 8 30 -38
0 -39 14 -78 23 -67 2 3 -1 31 -8 63 -11 55 -10 59 9 73 31 21 36 18 36 -25 0
-48 10 -78 20 -61 4 6 2 32 -3 57 -10 40 -9 47 8 59 30 22 35 17 35 -38 0 -29
5 -60 11 -68 7 -11 8 5 4 56 -7 69 -6 70 20 82 37 17 37 17 30 -32 -7 -45 0
-86 15 -86 4 0 7 30 7 67 l-2 68 31 3 31 3 -13 -53 c-16 -62 -18 -112 -4 -103
6 3 10 17 10 30 0 13 5 46 11 73 9 45 12 49 35 44 28 -5 29 -7 9 -62 -17 -49
-19 -70 -5 -70 5 0 15 27 22 60 11 54 14 59 33 54 29 -9 29 -10 11 -57 -9 -23
-16 -53 -16 -65 0 -40 18 -14 30 43 12 56 15 61 38 47 10 -7 8 -19 -8 -56 -22
-53 -24 -66 -11 -66 5 0 18 23 29 51 15 42 20 48 31 35 10 -12 8 -22 -8 -55
-12 -22 -21 -45 -21 -51 0 -22 21 2 37 42 15 37 17 39 29 23 11 -15 10 -22 -8
-47 -13 -19 -17 -33 -11 -39 7 -7 14 0 23 20 7 17 16 28 21 25 15 -9 10 -34
-11 -61 -11 -14 -20 -29 -20 -34 0 -15 29 3 35 22 7 20 25 26 25 8 0 -6 -9
-23 -21 -37 -13 -17 -16 -28 -9 -30 6 -2 18 4 25 14 13 17 14 17 15 2 0 -9
-15 -28 -32 -42 -27 -21 -29 -24 -10 -20 12 4 24 10 27 14 6 10 98 -6 132 -23
15 -8 38 -26 50 -39 21 -23 22 -25 7 -47 -9 -13 -35 -32 -58 -42 -73 -33 -235
-21 -261 21 -4 6 4 28 18 49 l26 39 -37 6 c-20 3 -182 6 -358 6 l-321 0 -39
-31 c-50 -39 -164 -93 -234 -110 -30 -8 -102 -14 -160 -14 -159 0 -257 31
-333 103 -37 36 -38 36 -115 34 -239 -8 -565 -40 -632 -63 -43 -16 -35 -40 19
-56 52 -15 262 -38 481 -54 241 -17 1584 -23 1920 -10 296 13 571 34 675 51
152 27 153 57 5 84 -84 16 -419 46 -506 46 -28 0 -43 4 -39 10 4 6 11 8 16 5
5 -3 6 2 2 11 -4 11 -3 15 5 10 6 -3 14 -1 18 5 4 8 3 9 -4 5 -7 -4 -12 -2
-12 4 0 6 7 13 15 16 8 4 13 9 10 13 -6 10 17 81 25 76 3 -2 6 50 5 115 0 68
-4 116 -9 113 -5 -4 -7 9 -3 28 3 19 3 28 0 21 -3 -8 -17 6 -35 33 -17 26 -44
56 -59 67 -16 12 -26 24 -24 28 3 4 -3 7 -12 6 -10 0 -18 4 -18 11 0 6 -4 15
-9 20 -5 5 -6 3 -2 -4 9 -16 1 -16 -27 -1 -12 6 -31 13 -42 14 -11 2 -52 12
-92 23 -114 31 -211 41 -408 41 l-183 0 -44 33 c-24 18 -53 52 -65 77 -30 58
-31 158 -3 232 l20 53 196 99 c318 160 539 319 756 545 60 61 110 111 112 111
2 0 11 -21 20 -46 39 -116 110 -194 176 -194 51 0 138 33 173 66 31 29 31 31
-14 131 -15 34 -25 64 -21 66 4 3 52 -6 107 -19 212 -50 280 -58 379 -46 166
21 313 115 414 267 59 87 86 161 85 230 -1 66 -48 197 -133 370 -114 232 -230
393 -450 620 l-77 80 6 130 c3 72 4 185 1 252 l-5 122 79 93 c43 51 125 146
182 210 75 85 104 124 104 143 0 15 -7 73 -16 131 -9 58 -14 107 -11 110 3 3
44 -20 91 -52 76 -50 88 -55 103 -43 10 8 83 70 163 138 80 69 147 126 149
128 18 13 -125 117 -234 171 -263 130 -630 177 -866 112 -35 -10 -38 -14 -53
-76 -23 -91 -75 -216 -125 -302 -55 -95 -230 -312 -230 -287 0 6 16 28 36 50
128 141 245 390 273 580 6 44 14 96 17 115 l5 35 19 -35 c25 -45 16 -8 -18 75
-140 337 -455 613 -852 746 -149 49 -357 102 -490 124 -132 22 -304 16 -406
-14 -38 -12 -73 -21 -76 -21 -4 0 -12 14 -20 31 -19 47 -56 87 -103 111 -51
27 -172 34 -233 14z m198 -36 c35 -18 99 -82 99 -100 0 -4 3 -15 6 -23 5 -14
-14 -26 -52 -33 -6 -1 -20 -5 -30 -8 -14 -4 -24 2 -36 24 -23 41 -83 58 -126
36 -40 -20 -66 -69 -58 -107 5 -26 2 -31 -37 -48 -23 -10 -59 -24 -81 -31 -50
-16 -58 -5 -54 76 10 176 212 293 369 214z m1105 -305 c125 -37 211 -179 174
-290 -29 -88 -117 -146 -249 -165 -122 -17 -210 15 -256 95 -119 202 92 431
331 360z m1431 -811 c102 -15 256 -59 357 -103 67 -29 54 -35 -24 -10 -215 67
-466 92 -642 63 -29 -5 -44 -1 -73 19 l-38 26 34 5 c19 3 45 7 59 9 64 10 232
6 327 -9z m-457 -234 c0 -80 -119 -368 -185 -445 -22 -26 -21 -21 9 35 19 36
46 97 61 135 28 75 85 287 85 320 1 20 1 20 15 1 8 -11 15 -31 15 -46z m-3764
-281 c62 -234 226 -518 408 -707 197 -204 381 -298 609 -309 98 -5 106 -7 93
-22 -29 -33 -89 -168 -132 -295 l-44 -131 -162 0 c-174 0 -239 11 -319 51 -58
29 -137 90 -222 173 -176 169 -254 325 -291 573 -20 136 -20 192 0 209 35 29
74 140 74 215 0 65 -27 139 -61 168 -29 25 -31 29 -24 79 9 74 15 89 32 85 11
-2 24 -32 39 -89z m-54 -89 c34 -26 52 -96 44 -168 -7 -63 -33 -151 -48 -167
-7 -7 -8 -2 -3 13 4 13 7 64 7 114 0 82 -3 96 -31 150 -17 33 -28 64 -25 69 9
14 30 10 56 -11z m1424 -975 c198 -95 425 -152 644 -162 160 -7 352 9 610 53
376 64 407 64 488 10 58 -38 107 -128 118 -213 20 -159 -51 -403 -194 -668
-106 -196 -522 -554 -817 -703 -77 -38 -192 -80 -236 -84 -29 -3 -42 -15 -87
-73 -70 -93 -168 -291 -192 -389 -24 -95 -26 -246 -5 -326 8 -30 13 -56 11
-57 -10 -10 -174 128 -267 223 -247 254 -427 562 -514 879 -54 200 -60 248
-60 510 1 221 3 250 28 367 15 69 37 157 51 195 13 37 31 95 41 127 10 32 55
134 101 226 46 93 84 173 84 179 0 6 24 -3 53 -20 28 -17 93 -50 143 -74z
m2611 -86 c43 -21 137 -118 245 -254 136 -171 286 -431 372 -647 l34 -88 -50
-65 c-53 -68 -74 -83 -58 -39 28 72 2 163 -106 375 -186 363 -406 618 -536
619 -67 0 -251 -99 -365 -197 -29 -24 -53 -41 -53 -38 0 4 20 35 44 69 82 115
225 231 331 268 65 23 90 22 142 -3z m-204 -842 c76 -91 214 -292 252 -367 13
-27 27 -66 31 -87 5 -32 2 -42 -19 -61 -29 -27 -47 -28 -292 -17 -195 9 -283
0 -364 -36 -24 -10 -46 -18 -48 -16 -2 2 11 26 29 53 20 30 58 66 98 92 54 37
75 59 126 140 l61 96 -131 148 c-152 172 -169 205 -162 313 3 39 10 85 16 102
l12 33 161 -156 c89 -85 193 -192 230 -237z m-1558 -1564 c0 -71 4 -96 22
-128 41 -77 144 -155 226 -170 20 -4 37 -11 37 -16 0 -5 -25 -16 -57 -25 -170
-49 -305 68 -290 251 4 51 46 175 59 175 2 0 3 -39 3 -87z m732 -309 c150 -31
249 -105 293 -220 19 -50 21 -72 17 -146 -8 -119 -22 -142 -30 -48 -7 85 -46
177 -102 239 -55 60 -156 106 -335 151 l-155 38 118 1 c72 1 148 -5 194 -15z"/>
<path d="M3708 5855 c-34 -19 -58 -63 -58 -106 0 -22 10 -41 34 -65 28 -28 41
-34 78 -34 23 0 52 7 62 15 19 15 19 15 -2 38 -30 32 -20 67 19 67 37 0 38 20
2 60 -34 38 -93 49 -135 25z"/>
<path d="M1660 5167 c0 -15 73 -153 110 -207 52 -75 136 -171 203 -229 31 -27
53 -51 50 -54 -10 -10 28 -171 58 -246 87 -218 257 -365 479 -416 100 -23 287
-23 404 -1 191 37 418 131 572 238 254 175 413 446 431 736 3 50 3 92 -2 92
-4 0 -24 -13 -44 -29 -20 -16 -74 -53 -121 -84 -314 -204 -712 -357 -1035
-397 -150 -19 -397 -8 -515 23 -147 38 -183 59 -301 177 -116 115 -174 192
-243 321 -25 46 -46 81 -46 76z m2248 -234 c-8 -57 -60 -225 -77 -252 -13 -20
-131 63 -131 92 0 31 -9 16 -46 -74 -35 -86 -119 -229 -135 -229 -14 0 -134
113 -133 125 1 6 5 24 9 40 12 48 0 27 -42 -71 -40 -91 -179 -334 -192 -334
-28 0 -171 189 -185 245 -6 24 -9 22 -70 -45 -59 -63 -126 -174 -126 -206 0
-38 -55 -17 -126 48 -52 48 -79 89 -104 159 l-18 52 -31 -54 c-17 -30 -39 -79
-48 -109 -9 -30 -18 -57 -20 -59 -2 -3 -26 17 -53 44 -46 45 -110 156 -110
190 0 8 -4 15 -10 15 -5 0 -9 -10 -9 -22 1 -13 -6 -40 -15 -60 -9 -21 -16 -52
-16 -70 l0 -32 -26 35 c-39 52 -56 88 -75 159 -10 35 -17 66 -15 67 1 1 31 -9
68 -22 152 -55 386 -71 593 -40 380 57 878 251 1091 424 27 22 52 40 55 40 3
1 2 -25 -3 -56z m-179 -258 c39 -45 42 -102 8 -157 -68 -112 -224 -248 -372
-325 -300 -154 -689 -197 -920 -101 -71 30 -176 101 -219 148 -50 55 -104 140
-112 175 -5 25 -1 22 27 -21 77 -117 158 -219 167 -209 3 3 -3 14 -12 24 -38
42 -58 153 -37 205 6 15 12 9 35 -36 15 -31 49 -81 75 -113 25 -31 56 -71 68
-88 12 -18 29 -42 38 -54 26 -37 38 -26 15 13 -20 31 -22 46 -18 112 3 46 13
95 25 122 l20 45 26 -52 c33 -65 117 -150 180 -183 38 -20 47 -30 47 -52 0
-15 5 -30 10 -33 6 -4 10 6 10 23 0 66 56 189 133 290 l40 53 18 -41 c24 -54
67 -114 128 -180 28 -30 51 -62 51 -69 0 -26 18 0 124 177 l102 170 78 -60
c58 -46 77 -56 74 -41 -1 11 10 35 26 54 30 35 116 203 116 226 0 22 16 15 49
-22z"/>
</g>
</svg>
